# xmcd
#
# Track frame offsets:
#	150
#	16559
#	32512
#	50949
#	65951
#	82010
#	95267
#	110920
#	126964
#	142382
#	156717
#	170841
#	183992
#
# Disc length: 2631 seconds
#
# Revision: 1
# Processed by: cddbd v1.5.2PL0 Copyright (c) Steve Scherf et al.
# Submitted via: audiograbber 1.83.01
#
DISCID=c80a450d
DTITLE=Lee Kernaghan - Planet Country
DYEAR=2009
DGENRE=Country
TTITLE0=Planet Country
TTITLE1=Love In The Time Of Drought
TTITLE2=People Like Us
TTITLE3=Dirt
TTITLE4=Gold
TTITLE5=Scars (with Dierks Bentley)
TTITLE6=Something Right
TTITLE7=Cowgirl
TTITLE8=The Old Block
TTITLE9=Australian Boy
TTITLE10=Girl's Gone Wild
TTITLE11=A Place For Me (Planet Country Reprise)
TTITLE12=I Milk Cows
EXTD=YEAR: 2009
EXTT0=
EXTT1=
EXTT2=
EXTT3=
EXTT4=
EXTT5=
EXTT6=
EXTT7=
EXTT8=
EXTT9=
EXTT10=
EXTT11=
EXTT12=
PLAYORDER=
